<svg width="18" height="18" viewBox="0 0 18 18" fill="none" xmlns="http://www.w3.org/2000/svg">
<path fill-rule="evenodd" clip-rule="evenodd" d="M12 1.5C14.4853 1.5 16.5 3.51472 16.5 6V12C16.5 14.4853 14.4853 16.5 12 16.5H6C3.51472 16.5 1.5 14.4853 1.5 12V6C1.5 3.51472 3.51472 1.5 6 1.5L12 1.5ZM11.25 3.75H6.75C5.14335 3.75 3.83169 5.01298 3.75367 6.60027L3.75 6.75V11.25C3.75 12.8566 5.01298 14.1683 6.60027 14.2463L6.75 14.25H11.25C12.8566 14.25 14.1683 12.987 14.2463 11.3997L14.25 11.25V6.75C14.25 5.14335 12.987 3.83169 11.3997 3.75367L11.25 3.75Z" fill="white"/>
<path d="M12 1.5V1V1.5ZM6 1.5V2V1.5ZM11.25 3.75L11.2623 3.25H11.25V3.75ZM3.75367 6.60027L3.25412 6.57572L3.25382 6.58801L3.75367 6.60027ZM3.75 6.75L3.25 6.73774V6.75H3.75ZM3.75 11.25H3.25H3.75ZM6.60027 14.2463L6.57572 14.7459L6.58801 14.7462L6.60027 14.2463ZM6.75 14.25L6.73774 14.75H6.75V14.25ZM14.2463 11.3997L14.7459 11.4243L14.7462 11.412L14.2463 11.3997ZM14.25 11.25L14.75 11.2623V11.25H14.25ZM11.3997 3.75367L11.4243 3.25412L11.412 3.25382L11.3997 3.75367ZM12 2C14.2091 2 16 3.79086 16 6H17C17 3.23858 14.7614 1 12 1V2ZM16 6V12H17V6H16ZM16 12C16 14.2091 14.2091 16 12 16V17C14.7614 17 17 14.7614 17 12H16ZM12 16H6V17H12V16ZM6 16C3.79086 16 2 14.2091 2 12H1C1 14.7614 3.23858 17 6 17V16ZM2 12V6H1V12H2ZM2 6C2 3.79086 3.79086 2 6 2V1C3.23858 1 1 3.23858 1 6H2ZM6 2H12V1H6V2ZM11.25 3.25H6.75V4.25H11.25V3.25ZM6.75 3.25C4.87543 3.25 3.34532 4.72347 3.25427 6.57572L4.25307 6.62482C4.31806 5.30248 5.41127 4.25 6.75 4.25V3.25ZM3.25382 6.58801L3.25015 6.73774L4.24985 6.76226L4.25352 6.61253L3.25382 6.58801ZM3.25 6.75V11.25H4.25V6.75H3.25ZM3.25 11.25C3.25 13.1246 4.72347 14.6547 6.57572 14.7457L6.62482 13.7469C5.30248 13.6819 4.25 12.5887 4.25 11.25H3.25ZM6.58801 14.7462L6.73774 14.7498L6.76226 13.7502L6.61253 13.7465L6.58801 14.7462ZM6.75 14.75H11.25V13.75H6.75V14.75ZM11.25 14.75C13.1246 14.75 14.6547 13.2765 14.7457 11.4243L13.7469 11.3752C13.6819 12.6975 12.5887 13.75 11.25 13.75V14.75ZM14.7462 11.412L14.7498 11.2623L13.7502 11.2377L13.7465 11.3875L14.7462 11.412ZM14.75 11.25V6.75H13.75V11.25H14.75ZM14.75 6.75C14.75 4.87543 13.2765 3.34532 11.4243 3.25427L11.3752 4.25307C12.6975 4.31806 13.75 5.41127 13.75 6.75H14.75ZM11.412 3.25382L11.2623 3.25015L11.2377 4.24985L11.3875 4.25352L11.412 3.25382Z" fill="black"/>
</svg>
