<svg width="123" height="25" viewBox="0 0 123 25" fill="none" xmlns="http://www.w3.org/2000/svg">
<path fill-rule="evenodd" clip-rule="evenodd" d="M11.518 4.05117V0.322894H8.32216C8.32216 0.322894 6.12525 0.189834 4.46082 1.72097C2.79639 3.25234 3.1958 5.11636 3.1958 5.11636V8.51199H0V12.5069H3.06274V23.8913H7.58986V12.5585H11.052L11.518 8.51199H7.58986V5.58255C7.58986 3.78482 9.45411 4.05117 9.45411 4.05117H11.518ZM19.2584 20.7956C20.8776 20.7956 22.1902 19.3437 22.1902 17.7994V14.8702C22.1902 13.3258 20.8776 11.8742 19.2584 11.8742C17.6391 11.8742 16.3264 13.3258 16.3264 14.8702V17.7994C16.3264 19.3437 17.6391 20.7956 19.2584 20.7956ZM22.4339 10.6101V8.57858H26.7976V23.8913H22.4368L22.4667 21.9162C21.3093 23.4617 19.6805 24.4238 17.8762 24.4238C14.3647 24.4238 11.518 21.2948 11.518 16.2847C11.518 11.2417 14.3647 8.14566 17.8762 8.14566C19.6635 8.14566 21.2789 9.09006 22.4339 10.6101ZM62.663 14.7704C62.663 13.226 63.9757 11.7741 65.5948 11.7741C67.2142 11.7741 68.5268 13.226 68.5268 14.7704V17.6996C68.5268 19.2439 67.2142 20.6955 65.5948 20.6955C63.9757 20.6955 62.663 19.2439 62.663 17.6996V14.7704ZM62.4193 23.9911V21.9596C63.5744 23.4797 65.1897 24.4241 66.9771 24.4241C70.4885 24.4241 73.3352 21.3281 73.3352 16.2847C73.3352 11.2749 70.4885 8.14566 66.9771 8.14566C65.1727 8.14566 63.5439 9.10798 62.3865 10.6533L62.4165 0.540465L57.8815 1.05077V23.9213L62.4193 23.9911ZM33.1555 16.3826C33.1555 20.91 36.6509 20.7101 36.6509 20.7101C39.0144 20.7434 39.8468 19.9113 39.8468 19.9113L40.9452 23.2069C39.0477 24.605 33.3221 24.8378 30.7588 22.4744C28.5409 20.4294 28.5414 17.1152 28.5817 16.2588C28.5414 15.4024 28.5409 12.0884 30.7588 10.0432C33.3221 7.67969 39.0477 7.91278 40.9452 9.31085L39.8468 12.6065C39.8468 12.6065 39.0144 11.7741 36.6509 11.8076C36.6509 11.8076 33.1555 11.6078 33.1555 16.1351V16.3826ZM46.1715 14.8035C46.1715 14.8035 45.9384 11.4081 49.0011 11.4081C52.0637 11.4081 51.8306 14.8035 51.8306 14.8035H46.1715ZM55.9918 17.8993C55.9918 17.8993 57.8225 8.3121 49.0677 8.2602C40.3126 8.20806 41.5776 16.9339 41.5776 16.9339C41.7774 22.2268 44.2074 23.7582 48.3686 24.2574C52.5296 24.7568 55.6921 23.1589 55.6921 23.1589L54.7267 20.0632C54.7267 20.0632 51.3646 21.0951 48.7015 20.862C46.0384 20.6291 46.238 17.8993 46.238 17.8993H55.9918ZM82.3175 20.7146C83.9791 20.7146 85.3259 19.2627 85.3259 17.7184V14.7892C85.3259 13.2448 83.9791 11.7932 82.3175 11.7932C80.6561 11.7932 79.309 13.2448 79.309 14.7892V17.7184C79.309 19.2627 80.6561 20.7146 82.3175 20.7146ZM74.7392 16.3892C74.7392 11.7932 76.6572 8.35464 82.3564 8.35464C87.7975 8.35464 89.9739 11.952 89.9739 16.3892C89.9739 21.5974 86.5634 24.424 82.3564 24.424C77.2107 24.424 74.7392 21.2652 74.7392 16.3892ZM102.147 17.7184C102.147 19.2627 100.8 20.7146 99.1383 20.7146C97.4769 20.7146 96.1298 19.2627 96.1298 17.7184V14.7892C96.1298 13.2448 97.4769 11.7932 99.1383 11.7932C100.8 11.7932 102.147 13.2448 102.147 14.7892V17.7184ZM99.1772 8.35464C93.478 8.35464 91.56 11.7932 91.56 16.3892C91.56 21.2652 94.0315 24.424 99.1772 24.424C103.384 24.424 106.795 21.5974 106.795 16.3892C106.795 11.952 104.618 8.35464 99.1772 8.35464ZM117.787 16.2487L122.767 23.9581H118.045L113.029 16.1151V23.9581H108.455V0.940141L113.029 0.460747V15.4404L117.676 8.53896H122.546L117.787 16.2487Z" fill="#969696"/>
</svg>
