<svg width="104" height="34" viewBox="0 0 104 34" fill="none" xmlns="http://www.w3.org/2000/svg">
<path fill-rule="evenodd" clip-rule="evenodd" d="M26.3121 14.0054L26.3117 14.0268C26.3113 14.046 26.3109 14.0658 26.3105 14.0797L26.308 14.0797C26.309 14.1086 26.3097 14.1009 26.3105 14.0797H26.3134C26.3134 13.9295 26.313 13.9548 26.3121 14.0054V14.0054ZM13.9055 26.426H13.9055V26.4285H13.9055V26.426ZM13.9055 26.426C13.8764 26.427 13.8841 26.4278 13.9055 26.4285V26.4285C13.9255 26.4291 13.9574 26.4297 13.9831 26.4301H13.9831C14.0357 26.431 14.062 26.4314 13.9055 26.4314C10.2626 26.4314 6.97477 24.9513 4.59337 22.5583C2.2095 20.1629 0.740234 16.8568 0.740234 13.2112C0.740234 9.56566 2.20926 6.26252 4.59238 3.86978C6.97403 1.47827 10.2624 -0.00012207 13.9055 -0.00012207C15.62 -0.00012207 17.2602 0.327752 18.7664 0.923842C20.3242 1.54064 21.7409 2.45006 22.9499 3.58578L20.3779 6.31946C19.5212 5.51457 18.5078 4.86646 17.3849 4.42199C16.3098 3.99624 15.1361 3.76229 13.9055 3.76229C11.2953 3.76229 8.9467 4.81395 7.25235 6.5152C5.55135 8.22335 4.5029 10.5905 4.5029 13.2112C4.5029 15.833 5.5516 18.2028 7.25359 19.9129C8.94818 21.6156 11.2963 22.669 13.9055 22.669C14.1959 22.669 14.0521 22.6728 13.9684 22.675H13.9684C13.9098 22.6765 13.8806 22.6773 14.0499 22.6754C16.6135 22.6481 18.7546 21.8617 20.2293 20.4185C21.3803 19.2922 22.1543 17.7364 22.4378 15.797H14.009V12.0346H24.4312H26.2848L26.305 13.9012C26.306 13.9998 26.307 14.0541 26.308 14.0797H26.306C26.306 17.9038 25.0396 20.9604 22.8601 23.0935C20.6819 25.225 17.6391 26.3853 14.0795 26.4233C13.9836 26.4243 13.9309 26.4253 13.9055 26.426V26.426ZM36.2227 12.8482C37.5737 12.8482 38.7954 13.412 39.6785 14.3234C40.5628 15.2363 41.1098 16.5039 41.1098 17.9101C41.1098 19.3162 40.5628 20.5841 39.6785 21.4967C38.7954 22.4081 37.5737 22.9719 36.2227 22.9719C34.8716 22.9719 33.6498 22.4081 32.7668 21.4967C31.8825 20.5841 31.3354 19.3162 31.3354 17.9101C31.3354 16.5039 31.8825 15.2363 32.7668 14.3234C33.6498 13.412 34.8716 12.8482 36.2227 12.8482ZM42.262 11.9455C40.7151 10.4128 38.5797 9.46471 36.2227 9.46471C33.8657 9.46471 31.7301 10.4128 30.1832 11.9455C28.6375 13.4769 27.6815 15.5861 27.6815 17.91C27.6815 20.234 28.6375 22.3433 30.1832 23.8746C31.7301 25.4075 33.8657 26.3554 36.2227 26.3554C38.5797 26.3554 40.7151 25.4075 42.262 23.8746C43.808 22.3433 44.764 20.234 44.764 17.91C44.764 15.5861 43.808 13.4769 42.262 11.9455ZM58.0486 14.3234C57.1655 13.412 55.9438 12.8482 54.5928 12.8482C53.2416 12.8482 52.0199 13.412 51.1368 14.3234C50.2528 15.2363 49.7058 16.5039 49.7058 17.9101C49.7058 19.3162 50.2528 20.5841 51.1368 21.4967C52.0199 22.4081 53.2416 22.9719 54.5928 22.9719C55.9438 22.9719 57.1655 22.4081 58.0486 21.4967C58.9328 20.5841 59.4799 19.3162 59.4799 17.9101C59.4799 16.5039 58.9328 15.2363 58.0486 14.3234ZM54.5928 9.46471C56.9498 9.46471 59.0852 10.4128 60.6324 11.9455C62.1781 13.4769 63.1341 15.5861 63.1341 17.91C63.1341 20.234 62.1781 22.3433 60.6324 23.8746C59.0852 25.4075 56.9498 26.3554 54.5928 26.3554C52.2358 26.3554 50.1005 25.4075 48.5533 23.8746C47.0076 22.3433 46.0513 20.234 46.0513 17.91C46.0513 15.5861 47.0076 13.4769 48.5533 11.9455C50.1005 10.4128 52.2358 9.46471 54.5928 9.46471ZM72.8167 12.8482C74.1036 12.8482 75.2674 13.412 76.1086 14.3234C76.9509 15.2363 77.4718 16.5039 77.4718 17.9101C77.4718 19.3162 76.9509 20.5841 76.1086 21.4967C75.2674 22.4081 74.1036 23.0648 72.8167 23.0648C70.0774 23.0648 68.1617 20.7517 68.1617 17.9101C68.1617 16.5039 68.6826 15.2363 69.5249 14.3234C70.3661 13.412 71.5297 12.8482 72.8167 12.8482ZM77.1183 11.411C75.865 10.1956 74.4704 9.46471 72.1709 9.46471C68.3199 9.46471 64.4431 13.216 64.4431 17.9101C64.4431 20.234 65.3082 22.3433 66.7067 23.8746C68.1065 25.4075 70.3959 26.3554 72.5283 26.3554C74.4029 26.3554 75.8458 25.623 77.1183 24.4049V26.2538C77.1183 28.9932 74.869 30.6557 73.0761 30.6557C70.5453 30.6557 69.1921 29.6221 68.2854 27.6159L65.0829 29.0592C65.8461 30.7482 66.9587 31.9472 68.2628 32.7499C69.7286 33.6522 71.4057 33.9742 73.0761 33.9742C74.9053 33.9742 76.753 33.2023 78.1283 31.9793C79.5562 30.7097 80.6105 28.2758 80.6105 26.0317V9.94099H77.1183V11.411ZM82.8683 25.8715H86.4742V1.08716H82.8683V25.8715ZM100.653 20.7339C98.7569 23.8931 93.7552 23.8558 92.3357 20.4741C94.5206 19.5942 96.6996 18.7038 98.8784 17.8134C100.499 17.1514 102.118 16.4894 103.741 15.8318C102.482 12.5883 100.76 10.7221 98.639 9.95176C95.3728 8.7655 92.2065 9.8714 90.1537 12.0465C87.6377 14.7128 86.8607 20.3372 90.4917 24.0028C91.9778 25.5028 93.9662 26.4288 96.4371 26.4261C99.2119 26.4108 101.759 25.2107 103.508 22.6479L100.653 20.7339ZM99.4414 14.5225L91.7618 17.6154C91.6489 15.9888 92.5231 14.5496 93.5212 13.7065C96.1166 11.9358 98.0858 12.7796 99.4414 14.5225Z" fill="#969696"/>
</svg>
