<svg width="128" height="33" viewBox="0 0 128 33" fill="none" xmlns="http://www.w3.org/2000/svg">
<path fill-rule="evenodd" clip-rule="evenodd" d="M125.112 0.683319H97.6909C96.3806 0.683319 95.3159 1.72191 95.3159 3.00182V30.5385C95.3159 31.8197 96.3806 32.8596 97.6909 32.8596H125.112C126.424 32.8596 127.493 31.8197 127.493 30.5385V3.00182C127.493 1.72191 126.424 0.683319 125.112 0.683319ZM102.474 5.11323C104 5.11323 105.24 6.35314 105.24 7.87952C105.24 9.40723 104 10.6471 102.474 10.6471C100.944 10.6471 99.7063 9.40723 99.7063 7.87952C99.7063 6.35314 100.944 5.11323 102.474 5.11323ZM104.859 28.1018H100.087V12.7462H104.859V28.1018ZM107.853 12.7462H112.43V14.8444H112.494C113.131 13.6371 114.688 12.3646 117.01 12.3646C121.843 12.3646 122.735 15.5452 122.735 19.6792V28.1018H117.966V20.6344C117.966 18.8538 117.933 16.5632 115.486 16.5632C113.002 16.5632 112.621 18.5029 112.621 20.5057V28.1018H107.853V12.7462ZM19.2413 5.10634C20.7691 5.10634 22.009 6.34626 22.009 7.87263C22.009 9.40169 20.7691 10.638 19.2413 10.638C17.7154 10.638 16.4755 9.40169 16.4755 7.87263C16.4755 6.34626 17.7154 5.10634 19.2413 5.10634ZM21.6269 28.0949V12.7393H16.8558V28.0949H21.6269ZM0.509766 5.44212V28.1011H14.6634V23.5211H5.47367V5.44212H0.509766ZM46.3386 5.44053H41.5696V28.1011H46.3386V20.5103H46.4008L51.4625 28.1011H57.4577L51.3314 19.8422L57.5884 12.7325H51.7414L46.3386 18.9831V5.44053ZM24.2654 12.7415H28.845V14.8406H28.9089C29.5444 13.632 31.1032 12.3603 33.4246 12.3603C38.2596 12.3603 39.1498 15.5405 39.1498 19.674V28.0949H34.3789V20.6288C34.3789 18.8473 34.3461 16.5583 31.8969 16.5583C29.4168 16.5583 29.0363 18.4987 29.0363 20.5015V28.0949H24.2654V12.7415ZM65.1482 28.4912C67.6305 28.4912 70.1416 27.3771 71.6684 25.4366L68.3295 22.9877C67.534 24.0689 66.4853 24.8644 64.9263 24.8644C63.0813 24.8644 61.7116 23.6877 61.3328 21.8747H72.4005V20.3798C72.4005 15.451 69.6044 12.2709 65.1482 12.2709C60.3787 12.2709 56.562 15.451 56.562 20.3798C56.562 25.3093 60.3787 28.4912 65.1482 28.4912ZM64.7022 15.7057C66.4214 15.7057 67.6616 17.0417 67.6305 18.632H61.3328C61.4586 17.1369 62.6045 15.7057 64.7022 15.7057ZM90.545 28.0927H86.1552V26.0564H86.093C85.3592 27.1692 83.5162 28.4741 81.3528 28.4741C76.7717 28.4741 73.7509 25.1678 73.7509 20.4919C73.7509 16.1979 76.4222 12.2543 80.8109 12.2543C82.7847 12.2543 84.6288 12.7945 85.7103 14.2894H85.7724V5.44042H90.545V28.0927ZM82.3364 16.4526C79.9529 16.4526 78.5219 18.044 78.5219 20.3639C78.5219 22.6875 79.9529 24.2755 82.3364 24.2755C84.7233 24.2755 86.1551 22.6875 86.1551 20.3639C86.1551 18.044 84.7233 16.4526 82.3364 16.4526Z" fill="#969696"/>
</svg>
