<svg width="109" height="33" viewBox="0 0 109 33" fill="none" xmlns="http://www.w3.org/2000/svg">
<path fill-rule="evenodd" clip-rule="evenodd" d="M54.2892 2.49067H50.3425V7.36081H48.216V10.8751H50.3425V23.176H54.2892V10.8751H56.4479V7.36081H54.2892V2.49067ZM44.517 0.23999C43.0674 0.23999 41.9266 1.38079 41.9266 2.86068C41.9266 4.30903 43.0674 5.45045 44.517 5.45045C46.0272 5.45045 47.1686 4.30903 47.1686 2.86068C47.1686 1.38079 46.0272 0.23999 44.517 0.23999ZM107.253 6.99203C106.576 6.99203 106.051 6.46771 106.051 5.78892C106.051 5.14151 106.576 4.61719 107.253 4.61719C107.901 4.61719 108.424 5.14151 108.424 5.78892C108.424 6.46771 107.901 6.99203 107.253 6.99203ZM107.253 4.43319C106.483 4.43319 105.867 5.04951 105.867 5.78892C105.867 6.55971 106.483 7.17665 107.253 7.17665C107.993 7.17665 108.61 6.55971 108.61 5.78892C108.61 5.04951 107.993 4.43319 107.253 4.43319ZM61.0401 13.6199C61.5644 11.5237 63.1678 10.352 65.2332 10.352C67.2993 10.352 68.8397 11.4922 69.3337 13.6199H61.0401ZM65.3251 6.86787C60.5787 6.86787 56.971 10.5064 56.971 15.3463C56.971 20.1243 60.2705 23.6388 65.3871 23.6388C68.2233 23.6388 70.7519 22.5911 72.6016 20.6172L69.9501 17.9977C68.655 19.2312 67.2678 20.1243 65.4796 20.1243C63.3223 20.1243 61.6879 18.8908 61.1333 16.8262H73.433V15.8706C73.433 10.4749 70.1046 6.86787 65.3251 6.86787ZM100.254 6.86787C98.312 6.86787 96.6477 7.60712 95.476 8.87208V0.672314H91.5292V23.176H95.476V14.5753C95.476 12.2945 96.9256 10.7214 99.3293 10.7214C101.58 10.7214 102.814 12.1085 102.814 14.5753V23.176H106.76V13.8664C106.76 9.48918 104.015 6.86787 100.254 6.86787ZM106.944 5.75861V5.26444H107.253C107.5 5.26444 107.593 5.35783 107.593 5.51214C107.593 5.66599 107.5 5.75861 107.253 5.75861H106.944ZM107.777 5.51214C107.777 5.20398 107.561 5.07982 107.253 5.07982H106.76V6.49786H106.944V5.94323H107.253L107.593 6.49786H107.807L107.438 5.91308C107.655 5.88092 107.777 5.75861 107.777 5.51214ZM83.2367 10.6911C84.9014 10.6911 86.2583 11.5539 87.3065 12.7571L90.05 10.0438C88.509 8.10129 86.0729 6.86787 83.2993 6.86787C78.5212 6.86787 74.7591 10.5064 74.7591 15.2529C74.7591 20.0007 78.5212 23.6388 83.2993 23.6388C86.0729 23.6388 88.509 22.4051 90.05 20.4646L87.3065 17.7513C86.2891 18.9225 84.9014 19.8161 83.2065 19.8161C80.6778 19.8161 78.7355 17.8434 78.7355 15.2529C78.7355 12.6631 80.6778 10.6911 83.2367 10.6911ZM42.5745 23.176H46.5213V7.36081H42.5745V23.176ZM14.0272 19.8161C11.4986 19.8161 9.49427 17.8131 9.49427 15.2227C9.49427 12.6631 11.4986 10.6911 14.0272 10.6911C16.5856 10.6911 18.5898 12.6631 18.5898 15.2529C18.5898 17.8434 16.5856 19.8161 14.0272 19.8161ZM14.0272 6.86787C9.24795 6.86787 5.48708 10.5064 5.48708 15.2529C5.48708 20.0007 9.24795 23.6388 14.0272 23.6388C18.8053 23.6388 22.566 20.0007 22.566 15.2529C22.566 10.5064 18.8053 6.86787 14.0272 6.86787ZM0 23.176H3.94673V0.672314H0V23.176ZM32.4625 19.8161C29.9352 19.8161 27.931 17.8131 27.931 15.2227C27.931 12.6631 29.9352 10.6911 32.4625 10.6911C35.0215 10.6911 37.0257 12.6631 37.0257 15.2529C37.0257 17.8434 35.0215 19.8161 32.4625 19.8161ZM40.8482 10.5064V7.36081H35.2981C34.405 7.05388 33.4496 6.86787 32.4625 6.86787C27.6845 6.86787 23.9238 10.5064 23.9238 15.2529C23.9238 20.0007 27.6845 23.6388 32.4625 23.6388C37.2406 23.6388 41.0027 20.0007 41.0027 15.2529C41.0027 13.6501 40.5702 12.0783 39.7074 10.9066L40.8482 10.5064ZM32.4625 28.7871C29.9352 28.7871 27.931 26.8146 27.931 24.2558H23.9238C23.9238 29.0034 27.6845 32.64 32.4625 32.64C37.2406 32.64 41.0027 29.0034 41.0027 24.2558H36.9941C36.9941 26.8146 34.9898 28.7871 32.4625 28.7871Z" fill="#969696"/>
</svg>
