<svg width="38" height="38" viewBox="0 0 38 38" fill="none" xmlns="http://www.w3.org/2000/svg">
<path fill-rule="evenodd" clip-rule="evenodd" d="M19 38C29.4934 38 38 29.4934 38 19C38 8.50659 29.4934 0 19 0C8.50659 0 0 8.50659 0 19C0 29.4934 8.50659 38 19 38Z" fill="#24AFB5"/>
<path opacity="0.4" fill-rule="evenodd" clip-rule="evenodd" d="M13.1039 18.3448H24.897C27.068 18.3448 28.828 20.1048 28.828 22.2759V26.2069C28.828 28.378 27.068 30.138 24.897 30.138H13.1039C10.9328 30.138 9.17285 28.378 9.17285 26.2069V22.2759C9.17285 20.1048 10.9328 18.3448 13.1039 18.3448Z" fill="white"/>
<path opacity="0.6" fill-rule="evenodd" clip-rule="evenodd" d="M13.1039 13.1034H24.897C27.068 13.1034 28.828 14.8634 28.828 17.0344V20.9655C28.828 23.1365 27.068 24.8965 24.897 24.8965H13.1039C10.9328 24.8965 9.17285 23.1365 9.17285 20.9655V17.0344C9.17285 14.8634 10.9328 13.1034 13.1039 13.1034Z" fill="white"/>
<path opacity="0.8" fill-rule="evenodd" clip-rule="evenodd" d="M13.1039 7.86206H24.897C27.068 7.86206 28.828 9.62204 28.828 11.7931V15.7241C28.828 17.8952 27.068 19.6552 24.897 19.6552H13.1039C10.9328 19.6552 9.17285 17.8952 9.17285 15.7241V11.7931C9.17285 9.62204 10.9328 7.86206 13.1039 7.86206Z" fill="white"/>
</svg>
