<svg width="115" height="22" viewBox="0 0 115 22" fill="none" xmlns="http://www.w3.org/2000/svg">
<path fill-rule="evenodd" clip-rule="evenodd" d="M38.9591 0.823459H32.7909V8.85748H26.367V0.823459H20.1964V21.0379H26.367V13.0855H32.7909V21.0379H38.9591V0.823459ZM60.427 16.9773V0.823459H54.256V21.0379H65.4134L66.3416 16.9773H60.427ZM43.5238 21.0379H49.693V0.823459H43.5238V21.0379ZM68.5402 21.0379H74.7084V0.823459H68.5402V21.0379ZM105.132 5.98112C105.132 4.88268 106.232 4.37376 108.006 4.37376C109.949 4.37376 112.064 4.79722 113.499 5.3916L112.994 0.992289C111.387 0.654629 109.949 0.399994 107.33 0.399994C102.344 0.399994 98.964 2.36725 98.964 6.49143C98.964 13.5934 108.601 12.1573 108.601 15.4554C108.601 16.723 107.668 17.398 105.385 17.398C103.361 17.398 100.23 16.723 98.3731 15.7931L99.0498 20.447C100.908 21.1223 103.443 21.46 105.472 21.46C110.626 21.46 114.853 19.7679 114.853 14.6918C114.853 7.92787 105.132 9.19653 105.132 5.98112ZM87.7264 16.2165C93.4697 16.2165 97.1044 13.2544 97.1044 8.0967C97.1044 2.42978 93.2179 0.399994 86.8781 0.399994C84.4283 0.399994 81.4685 0.568824 79.3557 0.823459V21.0379H85.5281V16.2165H87.7264ZM91.0179 8.18112C91.0179 10.8028 89.7534 12.579 86.5407 12.579H85.5281V4.2282C85.8863 4.20736 86.2239 4.20736 86.5407 4.20736C89.5821 4.20736 91.0179 5.6438 91.0179 8.18112ZM8.36647 16.2165C14.1126 16.2165 17.7459 13.2544 17.7459 8.0967C17.7459 2.42978 13.858 0.399994 7.52128 0.399994C5.06942 0.399994 2.11142 0.568824 0 0.823459V21.0379H6.16786V16.2165H8.36647ZM11.6635 8.18112C11.6635 10.8028 10.3949 12.579 7.18362 12.579H6.16786V4.2282C6.52914 4.20736 6.8668 4.20736 7.18362 4.20736C10.2236 4.20736 11.6635 5.6438 11.6635 8.18112Z" fill="#969696"/>
</svg>
