<svg width="28" height="20" viewBox="0 0 28 20" fill="none" xmlns="http://www.w3.org/2000/svg">
<path fill-rule="evenodd" clip-rule="evenodd" d="M6.34 20C7.36 20 8.3 19.42 8.74 18.52L11.58 12.84C11.86 12.28 12 11.68 12 11.06V2C12 0.9 11.1 0 10 0H2C0.9 0 0 0.9 0 2V10C0 11.1 0.9 12 2 12H6L3.94 16.12C3.04 17.9 4.34 20 6.34 20ZM22.34 20C23.36 20 24.3 19.42 24.74 18.52L27.58 12.84C27.86 12.28 28 11.68 28 11.06V2C28 0.9 27.1 0 26 0H18C16.9 0 16 0.9 16 2V10C16 11.1 16.9 12 18 12H22L19.94 16.12C19.04 17.9 20.34 20 22.34 20Z" fill="#969696"/>
</svg>
